<?xml version="1.0" encoding="UTF-8"?>
<svg xmlns="http://www.w3.org/2000/svg" xmlns:xlink="http://www.w3.org/1999/xlink" width="300px" height="70px" viewBox="0 0 300 70" version="1.1">
<g id="surface1">
<path style=" stroke:none;fill-rule:nonzero;fill:rgb(0%,0%,0%);fill-opacity:1;" d="M 191.457031 6.957031 C 185.246094 7.078125 179.707031 7.402344 179.09375 7.679688 C 179.003906 7.730469 178.945312 8.058594 178.976562 8.40625 L 179.035156 9.046875 L 176.457031 9.144531 C 173.261719 9.273438 169.101562 9.59375 167.082031 9.867188 C 165.175781 10.125 164.445312 10.417969 164.824219 10.773438 C 165.03125 10.960938 165.207031 13.429688 165.058594 14.082031 C 165.03125 14.167969 165.058594 14.957031 165.148438 15.835938 C 165.234375 17.210938 165.175781 17.464844 164.796875 17.65625 C 164.296875 17.882812 164.386719 18.148438 164.972656 18.257812 C 165.148438 18.289062 165.207031 18.929688 165.117188 19.898438 C 164.941406 21.8125 164.941406 21.652344 165.117188 23.1875 C 165.234375 24.171875 165.175781 24.46875 164.855469 24.613281 C 164.53125 24.769531 164.503906 24.835938 164.796875 24.988281 C 165.058594 25.132812 165.058594 25.214844 164.765625 25.367188 C 164.414062 25.550781 164.445312 25.570312 165.234375 25.757812 C 165.734375 25.867188 166.113281 25.988281 166.113281 26.03125 C 166.113281 26.078125 166.261719 26.113281 166.40625 26.113281 C 166.582031 26.113281 166.699219 26.171875 166.699219 26.246094 C 166.699219 26.433594 164.269531 26.804688 159.289062 27.394531 C 157.0625 27.652344 154.953125 27.898438 154.601562 27.9375 C 154.25 27.972656 153.253906 28.085938 152.375 28.191406 L 150.820312 28.382812 L 149.621094 28.300781 C 148.449219 28.21875 148.390625 28.21875 147.597656 28.304688 C 146.808594 28.390625 145.898438 28.566406 145.898438 28.625 C 145.898438 28.636719 147.160156 28.898438 148.710938 29.195312 C 151.496094 29.726562 153.75 30.34375 153.339844 30.445312 C 153.253906 30.472656 152.753906 30.378906 152.285156 30.234375 C 151.171875 29.898438 150.792969 29.824219 148.007812 29.375 C 144.289062 28.777344 142.792969 28.675781 140.1875 28.828125 C 139.542969 28.871094 135.410156 29.042969 130.988281 29.214844 C 121.933594 29.570312 120 29.667969 117.921875 29.871094 C 114.316406 30.226562 106.230469 31.394531 105.207031 31.703125 C 103.15625 32.339844 102.539062 33.042969 103.710938 33.40625 C 104.035156 33.5 104.414062 33.597656 104.589844 33.609375 C 105.175781 33.664062 106.378906 34.097656 106.289062 34.214844 C 106.144531 34.417969 105.46875 34.355469 104.882812 34.089844 C 104.121094 33.742188 103.300781 33.664062 101.515625 33.769531 C 100.429688 33.832031 99.933594 34.0625 99.726562 34.554688 C 99.523438 35.160156 99.316406 35.367188 98.996094 35.339844 C 98.847656 35.324219 98.730469 35.050781 98.730469 34.730469 C 98.730469 34.40625 98.585938 33.890625 98.4375 33.582031 C 98.175781 33.054688 98.175781 33.003906 98.730469 32.835938 C 99.40625 32.628906 99.433594 32.585938 98.996094 32.433594 L 98.671875 32.320312 L 87.042969 32.289062 C 80.65625 32.269531 75.175781 32.257812 74.855469 32.257812 C 73.535156 32.25 73.242188 32.269531 72.832031 32.398438 C 72.363281 32.539062 72.421875 32.6875 72.980469 32.796875 C 73.273438 32.847656 73.214844 32.941406 72.6875 33.234375 C 71.574219 33.851562 70.929688 34.238281 70.664062 34.40625 L 70.429688 34.566406 L 65.304688 34.773438 C 59.679688 35 56.28125 35.1875 55.546875 35.3125 C 54.875 35.433594 54.492188 35.867188 54.492188 36.578125 C 54.492188 37.214844 54.433594 37.234375 53.027344 37.234375 C 51.914062 37.234375 51.5625 37.402344 51.5625 37.949219 C 51.5625 38.609375 51.738281 38.644531 54.933594 38.644531 L 57.128906 38.644531 L 57.128906 38.804688 C 57.128906 39.179688 59.0625 39.683594 61.554688 39.96875 L 62.667969 40.089844 L 58.214844 40.117188 C 52.910156 40.152344 48.957031 40.257812 49.542969 40.351562 C 49.660156 40.371094 51.5625 40.425781 55.226562 40.515625 C 60.585938 40.644531 70.488281 40.683594 126.417969 40.78125 C 168.078125 40.859375 223.125 40.753906 235.695312 40.582031 C 242.375 40.492188 245.597656 40.371094 244.835938 40.257812 C 244.542969 40.214844 237.65625 40.0625 235.695312 40.058594 C 232.792969 40.054688 232.617188 40.039062 232.617188 39.78125 C 232.617188 39.578125 232.53125 39.546875 231.886719 39.511719 C 231.183594 39.46875 231.152344 39.453125 231.152344 39.070312 C 231.152344 38.847656 230.949219 38.136719 230.714844 37.484375 C 230.480469 36.832031 230.15625 35.558594 229.980469 34.65625 C 229.804688 33.753906 229.601562 32.820312 229.511719 32.585938 C 229.453125 32.347656 229.308594 26.941406 229.21875 20.574219 L 229.042969 9 L 228.457031 8.898438 C 226.992188 8.660156 219.960938 8.289062 214.746094 8.179688 L 213.398438 8.152344 L 213.398438 7.910156 C 213.398438 7.613281 213.105469 7.550781 210.9375 7.382812 C 207.160156 7.085938 201.828125 6.921875 196.171875 6.929688 C 194.0625 6.9375 191.953125 6.949219 191.457031 6.957031 Z M 184.980469 7.839844 C 185.097656 7.964844 185.097656 8.089844 185.011719 8.105469 C 184.921875 8.128906 183.925781 8.160156 182.785156 8.179688 C 180.558594 8.214844 180.175781 8.1875 180.175781 7.996094 C 180.207031 7.847656 180.96875 7.738281 182.433594 7.675781 C 184.71875 7.578125 184.777344 7.582031 184.980469 7.839844 Z M 210.585938 7.703125 C 211.730469 7.785156 211.816406 7.800781 211.816406 7.976562 L 211.816406 8.15625 L 207.570312 8.15625 L 207.597656 7.984375 C 207.65625 7.609375 207.65625 7.609375 208.535156 7.609375 C 208.976562 7.609375 209.882812 7.652344 210.585938 7.703125 Z M 211.757812 8.644531 C 211.875 8.921875 211.816406 8.925781 209.355469 8.808594 C 208.039062 8.746094 207.746094 8.714844 207.65625 8.617188 C 207.453125 8.375 207.570312 8.363281 209.707031 8.386719 L 211.671875 8.40625 Z M 185.15625 8.632812 L 185.15625 8.878906 L 183.046875 8.917969 C 181.875 8.941406 180.792969 8.945312 180.675781 8.925781 C 180.527344 8.914062 180.46875 8.800781 180.527344 8.675781 C 180.617188 8.453125 180.617188 8.453125 181.789062 8.425781 C 182.433594 8.414062 183.457031 8.394531 184.074219 8.390625 L 185.15625 8.386719 Z M 217.121094 8.507812 L 219.140625 8.582031 L 219.140625 9.238281 L 216.300781 9.085938 L 213.429688 8.9375 L 213.339844 8.679688 L 213.253906 8.429688 L 214.191406 8.429688 C 214.6875 8.429688 216.007812 8.460938 217.121094 8.507812 Z M 223.300781 8.753906 C 223.742188 8.789062 223.828125 8.859375 223.828125 9.164062 C 223.828125 9.363281 223.742188 9.523438 223.59375 9.515625 C 223.476562 9.507812 222.773438 9.464844 221.984375 9.414062 L 220.605469 9.328125 L 220.605469 8.648438 L 221.691406 8.679688 C 222.304688 8.699219 223.039062 8.730469 223.300781 8.753906 Z M 226.699219 9.003906 C 227.285156 9.070312 227.34375 9.109375 227.34375 9.550781 L 227.34375 10.027344 L 226.320312 9.925781 L 225.292969 9.820312 L 225.292969 9.375 C 225.292969 8.898438 225.441406 8.863281 226.699219 9.003906 Z M 195.996094 9.757812 C 198.488281 9.785156 200.917969 9.8125 201.386719 9.816406 C 201.855469 9.816406 202.296875 9.84375 202.355469 9.871094 C 202.414062 9.902344 201.59375 9.929688 200.039062 9.949219 C 196.261719 9.988281 186.59375 10.203125 186.066406 10.257812 C 185.683594 10.292969 185.742188 10.300781 186.328125 10.28125 C 188.027344 10.222656 195.382812 10.195312 195.792969 10.246094 C 196.027344 10.277344 196.261719 10.285156 196.378906 10.273438 C 196.464844 10.257812 196.496094 10.292969 196.40625 10.355469 C 196.347656 10.410156 196.347656 10.429688 196.464844 10.398438 C 196.554688 10.371094 196.757812 10.355469 196.90625 10.367188 C 197.257812 10.402344 196.523438 10.523438 196.144531 10.492188 C 195.996094 10.476562 196.113281 10.507812 196.40625 10.5625 C 196.964844 10.664062 196.964844 10.664062 196.40625 10.664062 C 195.996094 10.664062 195.9375 10.671875 196.230469 10.703125 C 196.464844 10.722656 196.640625 10.757812 196.640625 10.777344 C 196.640625 10.796875 196.464844 10.832031 196.230469 10.851562 C 196.027344 10.875 195.996094 10.890625 196.171875 10.890625 C 196.347656 10.890625 196.464844 10.945312 196.4375 11.015625 C 196.4375 11.085938 196.496094 11.230469 196.582031 11.332031 C 196.699219 11.4375 196.699219 11.515625 196.582031 11.507812 C 196.464844 11.492188 196.378906 11.539062 196.378906 11.597656 C 196.378906 11.660156 196.464844 11.710938 196.613281 11.710938 C 196.757812 11.710938 196.875 11.679688 196.875 11.644531 C 196.875 11.605469 197.023438 11.574219 197.199219 11.574219 C 197.34375 11.574219 197.402344 11.597656 197.285156 11.625 C 197.199219 11.652344 197.285156 11.695312 197.492188 11.714844 C 197.84375 11.75 197.84375 11.769531 197.519531 11.847656 C 197.316406 11.898438 197.257812 11.96875 197.375 12 C 197.492188 12.03125 197.375 12.03125 197.082031 11.988281 C 196.640625 11.933594 196.582031 11.941406 196.582031 12.027344 C 196.582031 12.164062 196.554688 12.179688 196.230469 12.277344 C 196.027344 12.335938 196.027344 12.351562 196.261719 12.332031 C 196.4375 12.3125 196.582031 12.332031 196.582031 12.367188 C 196.582031 12.410156 196.757812 12.441406 196.964844 12.445312 C 197.226562 12.445312 197.226562 12.453125 196.964844 12.46875 C 196.757812 12.480469 196.699219 12.523438 196.789062 12.5625 C 196.90625 12.613281 196.847656 12.628906 196.640625 12.605469 C 196.144531 12.558594 196.203125 12.652344 196.730469 12.726562 C 197.109375 12.789062 196.671875 12.800781 193.125 12.828125 C 182.199219 12.910156 176.164062 13.082031 169.277344 13.511719 C 168.78125 13.542969 168.75 13.453125 168.75 11.996094 L 168.75 10.449219 L 170.507812 10.304688 C 173.644531 10.042969 179.035156 9.839844 184.953125 9.757812 C 188.847656 9.703125 190.898438 9.703125 195.996094 9.757812 Z M 227.402344 10.96875 C 227.460938 11.042969 227.460938 11.257812 227.402344 11.449219 C 227.316406 11.714844 227.199219 11.804688 226.875 11.804688 C 226.554688 11.804688 226.464844 11.707031 226.464844 11.324219 C 226.464844 10.9375 226.554688 10.847656 226.875 10.847656 C 227.140625 10.847656 227.34375 10.902344 227.402344 10.96875 Z M 197.34375 11.386719 C 197.34375 11.4375 197.226562 11.464844 197.109375 11.457031 C 196.992188 11.441406 196.875 11.402344 196.875 11.367188 C 196.875 11.328125 196.992188 11.300781 197.109375 11.300781 C 197.226562 11.300781 197.34375 11.34375 197.34375 11.386719 Z M 197.609375 12.121094 C 197.519531 12.144531 197.285156 12.167969 197.140625 12.167969 C 196.964844 12.167969 196.933594 12.144531 197.023438 12.121094 C 197.109375 12.09375 197.34375 12.078125 197.492188 12.078125 C 197.667969 12.078125 197.695312 12.09375 197.609375 12.121094 Z M 227.34375 12.585938 C 227.34375 12.945312 227.285156 12.992188 226.90625 12.941406 C 226.582031 12.902344 226.464844 12.789062 226.464844 12.503906 C 226.464844 12.1875 226.523438 12.132812 226.90625 12.148438 C 227.257812 12.171875 227.34375 12.261719 227.34375 12.585938 Z M 227.285156 13.644531 C 227.34375 13.917969 227.285156 13.996094 226.992188 13.980469 C 226.730469 13.96875 226.582031 13.84375 226.523438 13.609375 C 226.464844 13.335938 226.523438 13.257812 226.816406 13.269531 C 227.082031 13.285156 227.226562 13.40625 227.285156 13.644531 Z M 196.320312 13.398438 C 196.347656 13.421875 196.378906 13.480469 196.40625 13.519531 C 196.4375 13.566406 196.554688 13.625 196.671875 13.65625 C 196.789062 13.683594 196.757812 13.722656 196.613281 13.734375 C 196.203125 13.777344 196.289062 14.085938 196.699219 14.054688 C 196.875 14.039062 196.699219 14.074219 196.320312 14.121094 C 195.851562 14.191406 195.761719 14.21875 196.085938 14.21875 C 196.613281 14.21875 196.964844 14.339844 196.554688 14.382812 C 196.40625 14.394531 196.347656 14.445312 196.4375 14.496094 C 196.554688 14.550781 196.496094 14.582031 196.230469 14.582031 C 195.9375 14.582031 195.9375 14.59375 196.261719 14.625 C 196.496094 14.648438 196.847656 14.65625 197.050781 14.640625 C 197.550781 14.613281 197.902344 14.714844 197.492188 14.777344 C 197.226562 14.820312 197.199219 14.816406 197.34375 14.746094 C 197.492188 14.6875 197.433594 14.667969 197.167969 14.683594 C 196.964844 14.691406 196.757812 14.785156 196.699219 14.878906 C 196.640625 14.980469 196.554688 15.09375 196.523438 15.128906 C 196.4375 15.285156 196.613281 15.359375 197.109375 15.363281 C 197.550781 15.367188 197.550781 15.371094 197.109375 15.390625 C 196.847656 15.398438 196.554688 15.441406 196.464844 15.476562 C 196.378906 15.515625 196.40625 15.53125 196.613281 15.515625 C 196.789062 15.5 196.875 15.523438 196.816406 15.566406 C 196.757812 15.617188 196.875 15.648438 197.050781 15.644531 C 197.226562 15.640625 197.34375 15.707031 197.34375 15.816406 C 197.316406 16.023438 196.875 16.0625 196.875 15.863281 C 196.875 15.785156 196.757812 15.714844 196.582031 15.699219 C 196.40625 15.6875 196.378906 15.703125 196.464844 15.746094 C 196.582031 15.78125 196.523438 15.839844 196.347656 15.871094 C 195.9375 15.949219 196.699219 16.109375 197.226562 16.058594 C 197.492188 16.035156 197.460938 16.050781 197.167969 16.109375 C 196.757812 16.1875 196.789062 16.191406 197.257812 16.164062 C 197.960938 16.125 197.871094 16.15625 196.964844 16.292969 L 196.144531 16.410156 L 197.023438 16.382812 C 197.753906 16.359375 197.8125 16.363281 197.375 16.40625 C 197.109375 16.433594 196.933594 16.480469 197.050781 16.5 C 197.140625 16.527344 197.402344 16.523438 197.695312 16.488281 C 198.105469 16.433594 198.105469 16.441406 197.785156 16.535156 C 197.460938 16.625 197.34375 16.628906 196.933594 16.578125 C 196.554688 16.535156 196.554688 16.542969 196.992188 16.621094 L 197.519531 16.71875 L 192.746094 16.71875 C 183.546875 16.726562 174.757812 16.929688 170.363281 17.246094 L 168.75 17.359375 L 168.808594 15.691406 L 168.898438 14.023438 L 170.800781 13.898438 C 174.523438 13.664062 180.617188 13.464844 186.769531 13.382812 C 189.640625 13.34375 196.289062 13.355469 196.320312 13.398438 Z M 197.902344 14.527344 C 197.8125 14.542969 197.578125 14.527344 197.375 14.496094 C 197.109375 14.449219 197.140625 14.445312 197.550781 14.472656 C 197.84375 14.488281 197.988281 14.515625 197.902344 14.527344 Z M 227.34375 14.859375 C 227.34375 15.171875 227.257812 15.269531 226.992188 15.257812 C 226.730469 15.242188 226.582031 15.105469 226.523438 14.84375 C 226.464844 14.511719 226.523438 14.445312 226.90625 14.445312 C 227.257812 14.445312 227.34375 14.519531 227.34375 14.859375 Z M 227.285156 15.960938 C 227.226562 16.207031 227.082031 16.382812 226.90625 16.382812 C 226.730469 16.382812 226.582031 16.207031 226.523438 15.960938 C 226.464844 15.605469 226.523438 15.539062 226.90625 15.539062 C 227.285156 15.539062 227.34375 15.605469 227.285156 15.960938 Z M 227.402344 17.304688 C 227.34375 17.648438 227.257812 17.941406 227.199219 17.945312 C 227.140625 17.957031 226.964844 17.949219 226.789062 17.933594 C 226.582031 17.914062 226.464844 17.675781 226.464844 17.289062 C 226.464844 16.738281 226.523438 16.679688 226.992188 16.679688 C 227.433594 16.679688 227.492188 16.734375 227.402344 17.304688 Z M 197.402344 17.28125 C 197.902344 17.359375 197.84375 17.429688 197.34375 17.367188 C 197.023438 17.328125 196.992188 17.339844 197.109375 17.429688 L 197.226562 17.546875 L 197.785156 17.449219 C 198.105469 17.394531 198.339844 17.367188 198.339844 17.394531 C 198.339844 17.480469 197.285156 17.589844 196.964844 17.539062 C 196.757812 17.507812 196.640625 17.523438 196.640625 17.601562 C 196.640625 17.660156 196.613281 17.722656 196.582031 17.75 C 196.554688 17.773438 196.523438 17.835938 196.554688 17.886719 C 196.582031 17.964844 196.640625 17.96875 196.875 17.910156 C 197.023438 17.875 197.167969 17.863281 197.167969 17.890625 C 197.167969 17.917969 196.992188 17.964844 196.789062 17.992188 C 196.320312 18.050781 196.171875 18.273438 196.613281 18.273438 C 196.757812 18.273438 196.847656 18.257812 196.730469 18.234375 C 196.640625 18.210938 196.699219 18.179688 196.875 18.160156 C 197.023438 18.148438 197.167969 18.160156 197.167969 18.203125 C 197.167969 18.238281 197.316406 18.273438 197.519531 18.285156 C 198.019531 18.3125 197.550781 18.460938 196.875 18.488281 C 196.554688 18.503906 196.378906 18.53125 196.464844 18.550781 C 196.554688 18.574219 196.789062 18.578125 196.964844 18.5625 C 197.167969 18.542969 197.140625 18.5625 196.90625 18.605469 C 196.699219 18.648438 196.582031 18.710938 196.671875 18.75 C 196.757812 18.78125 196.671875 18.835938 196.496094 18.863281 C 196.320312 18.890625 196.289062 18.914062 196.464844 18.914062 C 196.640625 18.914062 196.90625 18.890625 197.109375 18.859375 C 197.375 18.816406 197.460938 18.816406 197.460938 18.859375 C 197.460938 18.890625 197.34375 18.914062 197.226562 18.914062 C 197.082031 18.914062 196.816406 18.960938 196.640625 19.027344 C 196.261719 19.152344 196.671875 19.1875 197.140625 19.058594 C 197.316406 19.015625 197.460938 19.003906 197.460938 19.035156 C 197.460938 19.0625 197.316406 19.105469 197.167969 19.117188 C 196.992188 19.136719 196.933594 19.167969 197.023438 19.191406 C 197.140625 19.214844 196.992188 19.230469 196.757812 19.230469 C 196.523438 19.230469 196.230469 19.253906 196.144531 19.277344 C 196.027344 19.304688 196.113281 19.316406 196.347656 19.3125 C 196.582031 19.304688 196.699219 19.332031 196.640625 19.386719 C 196.582031 19.433594 196.699219 19.492188 196.933594 19.515625 C 197.226562 19.550781 197.199219 19.554688 196.816406 19.535156 C 196.464844 19.519531 196.347656 19.535156 196.378906 19.601562 C 196.40625 19.644531 196.554688 19.6875 196.699219 19.6875 C 196.847656 19.6875 196.875 19.699219 196.789062 19.714844 C 196.699219 19.734375 196.730469 19.78125 196.90625 19.828125 C 197.109375 19.890625 197.050781 19.925781 196.582031 19.96875 C 196.261719 20 195.996094 20.046875 195.996094 20.070312 C 195.996094 20.097656 196.144531 20.09375 196.320312 20.066406 C 196.699219 20.007812 197.460938 20.039062 197.460938 20.105469 C 197.460938 20.136719 197.316406 20.132812 197.082031 20.101562 C 196.757812 20.066406 196.582031 20.078125 196.320312 20.171875 C 195.96875 20.296875 196.144531 20.390625 196.554688 20.285156 C 196.730469 20.238281 196.847656 20.242188 196.964844 20.300781 C 197.082031 20.34375 197.050781 20.367188 196.90625 20.351562 C 196.757812 20.339844 196.582031 20.355469 196.464844 20.394531 C 196.378906 20.4375 196.496094 20.460938 196.789062 20.460938 C 197.167969 20.460938 197.199219 20.476562 196.933594 20.515625 C 196.699219 20.554688 195.441406 20.566406 192.863281 20.5625 C 186.035156 20.539062 176.132812 20.722656 171.09375 20.964844 C 170.039062 21.011719 169.101562 21.054688 168.984375 21.054688 C 168.839844 21.054688 168.75 20.339844 168.75 19.464844 L 168.75 17.875 L 169.484375 17.800781 C 171.300781 17.613281 178.332031 17.359375 183.839844 17.277344 C 188.085938 17.210938 196.992188 17.21875 197.402344 17.28125 Z M 197.460938 18.023438 C 197.257812 18.058594 196.964844 18.09375 196.789062 18.09375 C 196.613281 18.09375 196.730469 18.058594 197.050781 18.023438 C 197.785156 17.9375 197.929688 17.9375 197.460938 18.023438 Z M 227.402344 18.695312 C 227.460938 18.925781 227.460938 19.125 227.433594 19.136719 C 227.402344 19.144531 227.167969 19.140625 226.90625 19.125 C 226.554688 19.105469 226.464844 19.015625 226.464844 18.714844 C 226.464844 18.507812 226.554688 18.320312 226.671875 18.304688 C 227.167969 18.230469 227.316406 18.304688 227.402344 18.695312 Z M 227.34375 19.847656 C 227.34375 20.203125 227.257812 20.28125 226.90625 20.28125 C 226.554688 20.28125 226.464844 20.203125 226.464844 19.847656 C 226.464844 19.492188 226.554688 19.414062 226.90625 19.414062 C 227.257812 19.414062 227.34375 19.492188 227.34375 19.847656 Z M 227.34375 21.167969 C 227.34375 21.6875 227.109375 21.855469 226.640625 21.664062 C 226.554688 21.625 226.464844 21.367188 226.464844 21.09375 C 226.464844 20.683594 226.554688 20.597656 226.90625 20.597656 C 227.285156 20.597656 227.34375 20.695312 227.34375 21.167969 Z M 196.671875 21.109375 C 196.933594 21.136719 196.90625 21.144531 196.613281 21.144531 C 196.378906 21.144531 196.261719 21.15625 196.347656 21.171875 C 196.4375 21.1875 196.40625 21.269531 196.289062 21.355469 C 196.144531 21.441406 196.171875 21.511719 196.320312 21.511719 C 196.464844 21.511719 196.496094 21.59375 196.40625 21.691406 C 196.289062 21.8125 196.347656 21.898438 196.582031 21.941406 C 196.847656 21.988281 196.847656 22.011719 196.613281 22.011719 C 196.4375 22.011719 196.289062 22.035156 196.289062 22.0625 C 196.289062 22.085938 196.464844 22.09375 196.671875 22.078125 C 196.847656 22.0625 196.789062 22.078125 196.523438 22.117188 C 195.820312 22.203125 195.851562 22.253906 196.582031 22.214844 C 196.90625 22.203125 197.167969 22.203125 197.199219 22.226562 C 197.199219 22.242188 197.257812 22.296875 197.316406 22.339844 C 197.375 22.390625 197.257812 22.40625 196.992188 22.390625 C 196.757812 22.375 196.464844 22.414062 196.289062 22.488281 C 195.910156 22.648438 195.910156 22.671875 196.378906 22.613281 C 196.671875 22.578125 196.757812 22.585938 196.757812 22.648438 C 196.757812 22.695312 196.640625 22.722656 196.523438 22.714844 C 196.40625 22.699219 196.289062 22.714844 196.289062 22.734375 C 196.289062 22.761719 196.496094 22.785156 196.730469 22.785156 C 196.964844 22.785156 197.167969 22.804688 197.167969 22.832031 C 197.167969 22.855469 196.992188 22.878906 196.757812 22.878906 C 196.144531 22.878906 195.9375 22.953125 196.464844 22.988281 C 196.699219 23 196.816406 22.996094 196.730469 22.972656 C 196.554688 22.921875 197.695312 22.855469 197.960938 22.894531 C 198.078125 22.910156 197.988281 22.921875 197.8125 22.921875 C 197.609375 22.921875 197.460938 22.953125 197.460938 22.996094 C 197.460938 23.035156 197.609375 23.050781 197.8125 23.03125 C 197.988281 23.015625 198.046875 23.019531 197.960938 23.046875 C 197.84375 23.074219 197.433594 23.082031 197.050781 23.074219 C 196.320312 23.050781 196.171875 23.105469 196.671875 23.226562 C 196.789062 23.253906 196.699219 23.289062 196.523438 23.300781 C 196.289062 23.316406 196.4375 23.34375 196.875 23.371094 C 197.285156 23.398438 197.402344 23.417969 197.167969 23.417969 C 196.640625 23.425781 196.464844 23.710938 196.875 23.839844 C 197.257812 23.945312 196.964844 24.0625 196.320312 24.066406 C 195.9375 24.066406 195.96875 24.074219 196.40625 24.101562 C 197.375 24.164062 196.582031 24.179688 193.214844 24.191406 C 183.78125 24.222656 175.839844 24.332031 171.359375 24.496094 C 170.332031 24.53125 169.308594 24.5625 169.132812 24.5625 C 168.839844 24.5625 168.75 24.238281 168.75 23.085938 L 168.75 21.613281 L 171.476562 21.472656 C 177.101562 21.1875 183.339844 21.058594 191.105469 21.066406 C 193.976562 21.074219 196.496094 21.089844 196.671875 21.109375 Z M 197.375 21.8125 C 197.285156 21.824219 197.023438 21.828125 196.816406 21.816406 C 196.582031 21.800781 196.671875 21.789062 196.992188 21.789062 C 197.316406 21.785156 197.492188 21.796875 197.375 21.8125 Z M 227.285156 22.566406 C 227.226562 22.894531 227.082031 23.035156 226.816406 23.050781 C 226.523438 23.0625 226.4375 22.96875 226.496094 22.621094 C 226.523438 22.15625 226.582031 22.101562 227.082031 22.101562 C 227.257812 22.101562 227.34375 22.285156 227.285156 22.566406 Z M 227.316406 23.769531 C 227.34375 24.109375 227.285156 24.203125 226.992188 24.191406 C 226.613281 24.167969 226.289062 23.472656 226.582031 23.347656 C 226.992188 23.191406 227.285156 23.363281 227.316406 23.769531 Z M 197.460938 23.742188 C 197.460938 23.765625 197.316406 23.789062 197.140625 23.789062 C 196.992188 23.789062 196.933594 23.765625 197.023438 23.742188 C 197.109375 23.714844 197.257812 23.699219 197.34375 23.699219 C 197.402344 23.699219 197.460938 23.714844 197.460938 23.742188 Z M 197.902344 24.015625 C 197.988281 24.039062 197.960938 24.0625 197.785156 24.0625 C 197.636719 24.0625 197.402344 24.039062 197.316406 24.015625 C 197.226562 23.988281 197.257812 23.972656 197.433594 23.972656 C 197.578125 23.972656 197.8125 23.988281 197.902344 24.015625 Z M 227.34375 24.808594 C 227.34375 24.96875 227.257812 25.136719 227.167969 25.179688 C 226.816406 25.320312 226.464844 25.148438 226.464844 24.824219 C 226.464844 24.582031 226.554688 24.519531 226.90625 24.519531 C 227.257812 24.519531 227.34375 24.582031 227.34375 24.808594 Z M 192.863281 24.683594 C 194.53125 24.703125 195.117188 24.730469 195.117188 24.777344 C 195.117188 24.8125 195.265625 24.828125 195.410156 24.8125 C 195.585938 24.800781 195.703125 24.804688 195.703125 24.828125 C 195.703125 24.875 194.386719 24.886719 182.667969 24.976562 C 176.953125 25.023438 170.976562 25.132812 169.601562 25.21875 C 169.25 25.242188 169.074219 25.21875 168.984375 25.132812 C 168.808594 25 168.546875 25.015625 173.4375 24.886719 C 180.734375 24.695312 188 24.617188 192.863281 24.683594 Z M 227.285156 25.535156 C 227.34375 25.578125 227.199219 25.613281 226.933594 25.613281 C 226.640625 25.613281 226.464844 25.570312 226.464844 25.515625 C 226.464844 25.40625 227.140625 25.421875 227.285156 25.535156 Z M 227.316406 26.160156 C 227.375 26.515625 227.316406 26.570312 226.90625 26.570312 C 226.496094 26.570312 226.4375 26.515625 226.496094 26.214844 C 226.523438 26.023438 226.613281 25.835938 226.699219 25.804688 C 227.023438 25.660156 227.226562 25.78125 227.316406 26.160156 Z M 172.148438 25.953125 C 172.558594 26.039062 173.351562 26.21875 173.847656 26.351562 C 174.375 26.480469 175.605469 26.789062 176.601562 27.027344 C 177.570312 27.269531 179.238281 27.730469 180.292969 28.054688 C 181.347656 28.378906 182.667969 28.761719 183.222656 28.902344 C 183.78125 29.046875 184.132812 29.167969 183.984375 29.167969 C 183.722656 29.167969 176.691406 27.679688 173.292969 26.910156 C 172.207031 26.660156 170.714844 26.351562 170.011719 26.21875 C 169.335938 26.089844 168.75 25.972656 168.75 25.957031 C 168.75 25.917969 170.304688 25.796875 170.859375 25.792969 C 171.125 25.792969 171.710938 25.867188 172.148438 25.953125 Z M 206.046875 32.957031 C 206.191406 39.402344 206.191406 39.511719 205.636719 39.511719 C 205.078125 39.511719 205.078125 39.429688 205.019531 36.078125 C 204.84375 27.84375 204.902344 26.476562 205.371094 26.433594 C 205.605469 26.410156 205.8125 26.394531 205.839844 26.398438 C 205.871094 26.40625 205.957031 29.359375 206.046875 32.957031 Z M 227.34375 27.390625 C 227.34375 27.664062 227.226562 27.890625 227.082031 27.890625 C 226.613281 27.890625 226.464844 27.753906 226.464844 27.316406 C 226.464844 26.964844 226.554688 26.886719 226.90625 26.886719 C 227.257812 26.886719 227.34375 26.972656 227.34375 27.390625 Z M 221.191406 27.507812 C 221.191406 27.984375 221.28125 27.949219 217.941406 28.777344 C 216.59375 29.113281 215.039062 29.578125 215.039062 29.652344 C 215.039062 29.789062 214.484375 29.695312 213.75 29.425781 C 213.3125 29.269531 212.785156 29.089844 212.550781 29.019531 C 211.992188 28.851562 212.375 28.746094 216.679688 27.914062 C 218.644531 27.535156 220.3125 27.191406 220.402344 27.148438 C 220.519531 27.105469 220.722656 27.070312 220.898438 27.070312 C 221.074219 27.070312 221.191406 27.238281 221.191406 27.507812 Z M 174.816406 28.003906 C 180.46875 29.152344 185.246094 30.144531 185.507812 30.242188 C 185.742188 30.324219 185.566406 30.386719 184.394531 30.621094 C 183.632812 30.773438 182.902344 30.882812 182.785156 30.867188 C 182.375 30.792969 175.429688 29.199219 173.4375 28.710938 L 171.386719 28.203125 L 171.386719 27.765625 C 171.386719 27.519531 171.503906 27.34375 171.621094 27.367188 C 171.769531 27.394531 173.203125 27.675781 174.816406 28.003906 Z M 227.402344 28.625 C 227.492188 29.050781 227.375 29.15625 226.789062 29.101562 C 226.4375 29.066406 226.320312 28.292969 226.671875 28.242188 C 227.167969 28.164062 227.316406 28.242188 227.402344 28.625 Z M 166.875 30.179688 C 166.789062 31.164062 166.496094 32.808594 166.261719 33.835938 C 166.027344 34.863281 165.703125 36.332031 165.527344 37.097656 C 165.351562 37.863281 165.148438 38.714844 165.058594 38.996094 C 164.882812 39.496094 164.882812 39.503906 164.121094 39.535156 C 162.949219 39.578125 162.597656 39.644531 162.597656 39.8125 L 162.597656 39.96875 L 159.375 39.96875 C 157.414062 39.96875 156.152344 39.949219 156.152344 39.921875 C 156.152344 39.894531 156.269531 39.875 156.386719 39.875 C 156.710938 39.875 158.027344 39.492188 158.496094 39.261719 C 158.730469 39.160156 158.90625 38.890625 158.90625 38.667969 L 158.9375 38.257812 L 160.285156 38.253906 C 162.597656 38.25 162.597656 38.246094 162.597656 37.785156 C 162.597656 37.542969 162.480469 37.359375 162.277344 37.347656 C 162.101562 37.328125 161.308594 37.308594 160.519531 37.304688 C 159.726562 37.300781 158.9375 37.273438 158.789062 37.25 C 158.644531 37.226562 158.4375 37.085938 158.320312 36.9375 C 158.058594 36.566406 157.765625 36.457031 157.03125 36.457031 C 156.710938 36.457031 156.359375 36.429688 156.269531 36.394531 C 156.125 36.332031 156.5625 35.875 158.058594 34.566406 C 159.316406 33.46875 159.960938 32.507812 159.960938 31.722656 L 159.960938 30.988281 L 160.78125 30.9375 C 162.570312 30.824219 162.863281 30.789062 163.15625 30.660156 C 163.535156 30.496094 162.980469 30.300781 161.867188 30.1875 C 161.425781 30.140625 160.957031 30.023438 160.636719 29.867188 L 160.136719 29.621094 L 161.191406 29.449219 C 161.75 29.359375 162.597656 29.199219 163.066406 29.097656 C 164.179688 28.855469 166.730469 28.390625 166.933594 28.390625 C 167.023438 28.390625 166.992188 29.199219 166.875 30.179688 Z M 221.984375 31.34375 C 222.128906 31.933594 222.128906 32.421875 222.042969 32.429688 C 221.925781 32.4375 221.222656 32.214844 220.460938 31.933594 C 219.699219 31.65625 218.351562 31.152344 217.441406 30.828125 C 216.5625 30.5 215.832031 30.214844 215.832031 30.183594 C 215.832031 30.152344 216.066406 30.035156 216.359375 29.933594 C 216.972656 29.71875 220.488281 28.722656 221.015625 28.625 C 221.339844 28.554688 221.484375 28.914062 221.984375 31.34375 Z M 175.488281 29.917969 C 177.421875 30.34375 179.503906 30.789062 180.117188 30.910156 C 180.703125 31.03125 181.230469 31.144531 181.289062 31.164062 C 181.378906 31.203125 171.914062 33.058594 171.359375 33.113281 C 171.066406 33.140625 171.035156 32.921875 171.183594 32.148438 C 171.300781 31.601562 171.386719 30.679688 171.386719 30.101562 C 171.386719 29.449219 171.503906 29.074219 171.652344 29.097656 C 171.828125 29.125 173.527344 29.488281 175.488281 29.917969 Z M 211.523438 29.40625 C 211.523438 29.429688 211.992188 29.613281 212.550781 29.8125 L 213.605469 30.183594 L 212.226562 30.710938 C 210.644531 31.332031 210.207031 31.429688 210.46875 31.109375 C 210.558594 30.984375 210.644531 30.5 210.644531 30.035156 C 210.675781 29.28125 210.703125 29.199219 211.085938 29.277344 C 211.320312 29.324219 211.523438 29.386719 211.523438 29.40625 Z M 145.3125 29.734375 C 146.25 29.882812 146.515625 29.953125 146.25 29.976562 C 146.074219 30 144.757812 30.1875 143.351562 30.402344 C 141.914062 30.609375 139.511719 30.957031 137.988281 31.171875 C 136.464844 31.382812 134.796875 31.613281 134.328125 31.683594 L 133.417969 31.808594 L 131.691406 31.480469 C 130.722656 31.300781 128.554688 30.929688 126.886719 30.65625 C 125.011719 30.355469 123.925781 30.152344 124.101562 30.125 C 124.308594 30.089844 136.378906 29.589844 141.652344 29.394531 C 142.675781 29.359375 143.351562 29.421875 145.3125 29.734375 Z M 227.402344 29.878906 C 227.492188 30.316406 227.316406 30.457031 226.847656 30.378906 C 226.582031 30.335938 226.378906 29.644531 226.582031 29.511719 C 226.992188 29.265625 227.316406 29.414062 227.402344 29.878906 Z M 123.546875 30.660156 C 126.125 31.007812 131.660156 31.964844 131.484375 32.039062 C 131.398438 32.074219 128.496094 32.433594 122.402344 33.171875 C 120.644531 33.382812 119.238281 33.582031 119.238281 33.613281 C 119.238281 33.644531 119.472656 33.78125 119.765625 33.914062 C 121.554688 34.707031 121.320312 34.722656 118.917969 33.972656 C 116.660156 33.285156 114.992188 32.921875 111.5625 32.382812 C 110.15625 32.160156 108.984375 31.964844 108.984375 31.949219 C 108.984375 31.890625 116.984375 30.835938 119.941406 30.496094 C 120.441406 30.441406 120.996094 30.398438 121.203125 30.398438 C 121.40625 30.398438 122.460938 30.515625 123.546875 30.660156 Z M 189.492188 31 C 190.429688 31.207031 191.367188 31.421875 191.542969 31.472656 C 192.042969 31.617188 192.363281 32.195312 191.925781 32.15625 C 191.75 32.136719 191.601562 32.003906 191.601562 31.851562 C 191.601562 31.582031 191.601562 31.578125 190.8125 31.59375 C 189.992188 31.613281 189.992188 31.613281 189.902344 32.003906 C 189.875 32.222656 189.726562 32.402344 189.609375 32.402344 C 189.433594 32.402344 187.003906 31.875 184.804688 31.355469 C 184.277344 31.234375 184.308594 31.234375 185.917969 30.929688 C 186.828125 30.761719 187.589844 30.625 187.648438 30.625 C 187.707031 30.625 188.527344 30.792969 189.492188 31 Z M 203.027344 31.605469 C 203.027344 32.507812 203 32.539062 202.441406 32.539062 C 201.914062 32.539062 201.855469 32.507812 201.855469 32.15625 L 201.855469 31.773438 L 200.507812 31.742188 C 199.425781 31.71875 199.21875 31.695312 199.367188 31.636719 C 199.570312 31.550781 202.851562 30.671875 202.96875 30.671875 C 203 30.671875 203.027344 31.089844 203.027344 31.605469 Z M 215.800781 31.066406 C 218.878906 32.152344 221.777344 33.207031 221.777344 33.234375 C 221.777344 33.253906 219.230469 33.261719 216.152344 33.257812 L 210.5 33.246094 L 210.410156 32.835938 C 210.351562 32.605469 210.46875 32.332031 210.644531 32.21875 C 211.027344 31.984375 214.511719 30.664062 214.6875 30.691406 C 214.746094 30.703125 215.273438 30.871094 215.800781 31.066406 Z M 227.578125 31.203125 C 227.460938 31.90625 226.933594 31.894531 226.816406 31.195312 C 226.757812 30.742188 226.816406 30.671875 227.199219 30.671875 C 227.578125 30.671875 227.636719 30.742188 227.578125 31.203125 Z M 156.066406 31.578125 C 155.714844 32.246094 155.011719 32.765625 154.425781 32.765625 C 154.335938 32.765625 153.925781 32.652344 153.546875 32.511719 L 152.84375 32.261719 L 153.605469 32.136719 C 154.71875 31.957031 155.65625 31.601562 155.449219 31.4375 C 155.363281 31.363281 155.449219 31.257812 155.625 31.203125 C 155.949219 31.109375 155.976562 31.109375 156.09375 31.191406 C 156.152344 31.238281 156.152344 31.414062 156.066406 31.578125 Z M 183.605469 31.730469 C 183.957031 31.808594 185.625 32.195312 187.324219 32.585938 L 190.429688 33.289062 L 182.167969 33.316406 C 177.597656 33.332031 173.613281 33.359375 173.292969 33.382812 C 172.941406 33.40625 173.234375 33.332031 174.023438 33.195312 C 174.757812 33.070312 176.984375 32.65625 178.945312 32.273438 C 180.9375 31.894531 182.636719 31.582031 182.753906 31.582031 C 182.871094 31.582031 183.253906 31.648438 183.605469 31.730469 Z M 200.1875 32.054688 C 200.332031 32.113281 200.15625 32.3125 199.953125 32.3125 C 199.132812 32.3125 198.546875 32.109375 199.132812 32.023438 C 199.453125 31.96875 200.039062 31.988281 200.1875 32.054688 Z M 227.695312 32.183594 C 227.785156 32.292969 227.84375 32.503906 227.8125 32.652344 C 227.785156 32.863281 227.695312 32.925781 227.34375 32.925781 C 226.992188 32.925781 226.875 32.84375 226.816406 32.515625 C 226.789062 32.292969 226.816406 32.082031 226.875 32.050781 C 227.167969 31.933594 227.578125 31.996094 227.695312 32.183594 Z M 192.277344 32.320312 C 192.453125 32.40625 192.160156 32.542969 191.867188 32.511719 C 191.515625 32.480469 191.515625 32.265625 191.867188 32.265625 C 192.011719 32.265625 192.1875 32.292969 192.277344 32.320312 Z M 199.628906 32.519531 C 199.894531 32.535156 200.097656 32.589844 200.097656 32.640625 C 200.097656 32.699219 199.953125 32.722656 199.6875 32.707031 C 199.453125 32.695312 199.191406 32.703125 199.132812 32.734375 C 199.074219 32.765625 199.015625 32.722656 198.984375 32.640625 C 198.957031 32.480469 198.957031 32.480469 199.628906 32.519531 Z M 192.1875 32.742188 C 192.1875 32.871094 191.75 32.898438 191.484375 32.785156 C 191.191406 32.671875 191.28125 32.628906 191.75 32.628906 C 192.011719 32.628906 192.1875 32.671875 192.1875 32.742188 Z M 203.027344 32.699219 C 203.027344 32.734375 202.765625 32.765625 202.441406 32.765625 C 202.0625 32.765625 201.914062 32.742188 202.03125 32.699219 C 202.148438 32.660156 202.382812 32.628906 202.617188 32.628906 C 202.851562 32.628906 203.027344 32.660156 203.027344 32.699219 Z M 86.660156 32.972656 C 87.304688 32.996094 87.304688 33.003906 87.304688 33.738281 C 87.304688 34.253906 87.1875 34.5 86.953125 34.535156 C 86.691406 34.574219 84.902344 34.589844 80.65625 34.589844 C 77.375 34.589844 74.707031 34.582031 74.707031 34.566406 C 74.707031 34.515625 77.34375 32.988281 77.492188 32.949219 C 77.609375 32.921875 85.753906 32.945312 86.660156 32.972656 Z M 203.027344 33.125 C 203.027344 33.195312 202.734375 33.214844 201.503906 33.242188 C 199.160156 33.28125 198.925781 33.277344 198.925781 33.179688 C 198.925781 33.066406 199.277344 33.050781 201.359375 33.042969 C 202.792969 33.039062 203.027344 33.054688 203.027344 33.125 Z M 227.871094 33.574219 C 227.753906 34.152344 227.226562 34.144531 227.109375 33.5625 C 227.050781 33.195312 227.109375 33.132812 227.492188 33.132812 C 227.871094 33.132812 227.929688 33.195312 227.871094 33.574219 Z M 149.121094 33.398438 C 149.121094 33.65625 141.710938 35.339844 137.609375 36.015625 L 136.613281 36.183594 L 126.710938 36.183594 L 129.492188 35.964844 C 133.039062 35.683594 140.421875 34.949219 141.886719 34.730469 C 143.234375 34.535156 147.863281 33.507812 148.300781 33.308594 C 148.652344 33.152344 149.121094 33.203125 149.121094 33.398438 Z M 154.453125 33.503906 C 154.277344 33.609375 154.015625 33.660156 153.574219 33.667969 C 152.726562 33.6875 152.753906 33.605469 153.722656 33.414062 C 154.570312 33.234375 154.863281 33.269531 154.453125 33.503906 Z M 222.304688 34.027344 C 222.1875 34.191406 221.691406 34.367188 220.371094 34.707031 C 219.375 34.964844 218.292969 35.265625 217.910156 35.382812 C 217.558594 35.496094 217.179688 35.59375 217.0625 35.59375 C 216.945312 35.59375 216.59375 35.503906 216.269531 35.394531 C 213.105469 34.367188 212.023438 34.007812 211.789062 33.914062 L 211.523438 33.816406 L 222.453125 33.816406 Z M 191.425781 34.007812 C 191.308594 34.039062 189.992188 34.300781 188.527344 34.589844 C 187.0625 34.875 185.011719 35.28125 184.015625 35.488281 C 182.988281 35.695312 182.082031 35.867188 181.964844 35.867188 C 181.875 35.859375 181.4375 35.773438 180.996094 35.667969 C 180.117188 35.449219 173.878906 34.148438 173.261719 34.050781 C 173.027344 34.019531 172.851562 33.984375 172.851562 33.96875 C 172.851562 33.960938 177.070312 33.953125 182.257812 33.953125 C 189.667969 33.953125 191.601562 33.964844 191.425781 34.007812 Z M 203.410156 35.394531 C 203.527344 36.1875 203.613281 37.4375 203.613281 38.167969 L 203.613281 39.496094 L 202.734375 39.523438 C 201.945312 39.550781 201.855469 39.570312 201.855469 39.738281 L 201.855469 39.925781 L 200.480469 39.914062 C 199.074219 39.898438 199.074219 39.898438 198.984375 39.726562 C 198.898438 39.574219 198.78125 39.546875 198.019531 39.523438 L 197.167969 39.496094 L 197.167969 33.953125 L 203.234375 33.953125 Z M 153.515625 34.136719 C 153.515625 34.15625 153.398438 34.230469 153.222656 34.292969 C 152.960938 34.398438 152.785156 34.410156 151.847656 34.398438 C 150.527344 34.378906 150.382812 34.324219 151.289062 34.175781 C 151.816406 34.082031 152.199219 34.0625 152.753906 34.074219 C 153.164062 34.089844 153.515625 34.117188 153.515625 34.136719 Z M 171.652344 34.324219 C 171.855469 34.382812 173.964844 34.828125 176.308594 35.308594 C 180.175781 36.105469 180.527344 36.203125 180.207031 36.285156 C 180 36.335938 178.507812 36.644531 176.867188 36.976562 C 175.226562 37.304688 173.320312 37.6875 172.617188 37.828125 C 170.128906 38.339844 170.1875 38.34375 170.363281 37.59375 C 170.597656 36.53125 170.800781 35.242188 170.800781 34.710938 C 170.800781 34.445312 170.890625 34.226562 171.035156 34.226562 C 171.152344 34.226562 171.417969 34.269531 171.652344 34.324219 Z M 228.222656 34.832031 C 228.222656 35.210938 228.136719 35.324219 227.871094 35.308594 C 227.375 35.28125 226.992188 34.308594 227.460938 34.261719 C 228.046875 34.203125 228.222656 34.339844 228.222656 34.832031 Z M 215.625 36.039062 C 215.625 36.058594 214.746094 36.371094 213.691406 36.734375 C 212.636719 37.097656 211.582031 37.472656 211.320312 37.574219 C 211.054688 37.675781 210.734375 37.773438 210.585938 37.796875 C 210.46875 37.824219 210.351562 37.046875 210.351562 36.066406 L 210.351562 34.292969 L 212.988281 35.144531 C 214.453125 35.613281 215.625 36.015625 215.625 36.039062 Z M 191.835938 37.082031 L 191.75 37.9375 L 190.546875 37.664062 C 189.875 37.515625 188.058594 37.136719 186.503906 36.828125 C 184.953125 36.515625 183.691406 36.253906 183.691406 36.234375 C 183.691406 36.214844 185.507812 35.828125 187.734375 35.367188 L 191.75 34.535156 L 191.835938 35.382812 C 191.867188 35.847656 191.867188 36.613281 191.835938 37.082031 Z M 223.097656 35.980469 C 223.214844 36.480469 223.390625 37.089844 223.507812 37.335938 C 223.59375 37.582031 223.59375 37.796875 223.476562 37.808594 C 223.332031 37.820312 223.242188 37.808594 223.242188 37.78125 C 223.242188 37.753906 222.128906 37.351562 220.753906 36.890625 C 219.375 36.429688 218.261719 36.03125 218.261719 36.003906 C 218.261719 35.976562 218.585938 35.867188 218.964844 35.761719 C 219.347656 35.65625 220.285156 35.382812 221.074219 35.160156 L 222.480469 34.75 L 222.6875 34.910156 C 222.804688 34.996094 222.980469 35.476562 223.097656 35.980469 Z M 111.5625 35.382812 C 112.851562 35.71875 113.761719 35.910156 114.550781 35.992188 C 115.195312 36.0625 115.695312 36.128906 115.722656 36.148438 C 115.722656 36.1875 109.6875 36.25 109.101562 36.210938 C 108.808594 36.195312 108.691406 36.15625 108.808594 36.113281 C 108.898438 36.070312 108.984375 35.773438 108.984375 35.445312 C 108.984375 35.007812 109.074219 34.859375 109.335938 34.871094 C 109.542969 34.886719 110.539062 35.113281 111.5625 35.382812 Z M 151.144531 35.804688 C 150.9375 35.953125 150.703125 36.089844 150.585938 36.105469 C 150.46875 36.128906 149.035156 36.152344 147.421875 36.160156 C 145.8125 36.171875 144.171875 36.1875 143.820312 36.207031 C 143.410156 36.230469 143.261719 36.226562 143.378906 36.1875 C 143.496094 36.167969 144.023438 36.121094 144.582031 36.097656 C 145.871094 36.042969 150.382812 35.664062 150.878906 35.570312 C 151.464844 35.460938 151.554688 35.519531 151.144531 35.804688 Z M 228.488281 36.085938 C 228.515625 36.335938 228.429688 36.417969 228.164062 36.402344 C 227.753906 36.378906 227.460938 35.71875 227.8125 35.597656 C 228.136719 35.476562 228.457031 35.707031 228.488281 36.085938 Z M 220.722656 37.625 C 223.886719 38.6875 224.121094 38.785156 224.121094 39.046875 C 224.121094 39.382812 223.945312 39.460938 223.066406 39.515625 C 222.480469 39.546875 222.363281 39.585938 222.363281 39.761719 C 222.363281 39.875 222.335938 39.96875 222.304688 39.96875 C 222.246094 39.972656 220.019531 39.980469 217.324219 40 L 212.402344 40.027344 L 212.402344 39.796875 C 212.402344 39.558594 212.167969 39.511719 210.910156 39.511719 C 210.410156 39.511719 210.351562 39.476562 210.351562 39.070312 L 210.351562 38.628906 L 212.285156 37.964844 C 215.832031 36.742188 216.886719 36.40625 217.089844 36.445312 C 217.207031 36.460938 218.847656 36.996094 220.722656 37.625 Z M 77.402344 36.613281 C 78.339844 36.675781 79.628906 36.804688 80.273438 36.894531 C 81.417969 37.058594 83.117188 37.441406 82.851562 37.484375 C 82.792969 37.492188 82.0625 37.382812 81.210938 37.234375 C 79.015625 36.851562 76.554688 36.667969 73.566406 36.667969 C 69.316406 36.664062 66.300781 36.898438 63.722656 37.429688 C 62.929688 37.59375 62.226562 37.71875 62.167969 37.714844 C 61.613281 37.625 64.394531 37.003906 66.359375 36.785156 C 67.414062 36.667969 69.257812 36.542969 70.753906 36.484375 C 72.1875 36.429688 75.761719 36.5 77.402344 36.613281 Z M 187.089844 37.582031 L 191.894531 38.578125 L 191.808594 39.03125 L 191.75 39.488281 L 190.8125 39.503906 C 189.933594 39.515625 189.875 39.523438 189.785156 39.730469 L 189.699219 39.945312 L 182.226562 39.980469 C 178.125 40.003906 174.199219 40.007812 173.527344 39.988281 C 172.324219 39.960938 172.296875 39.957031 172.207031 39.769531 C 172.121094 39.601562 172.03125 39.578125 171.183594 39.539062 C 170.214844 39.496094 170.214844 39.492188 170.214844 39.21875 C 170.214844 38.949219 170.273438 38.929688 171.914062 38.59375 C 177.363281 37.480469 182.050781 36.554688 182.167969 36.570312 C 182.226562 36.582031 184.453125 37.035156 187.089844 37.582031 Z M 228.78125 37.289062 C 228.808594 37.535156 228.691406 37.734375 228.546875 37.734375 C 228.078125 37.734375 227.695312 36.78125 228.136719 36.714844 C 228.546875 36.648438 228.78125 36.851562 228.78125 37.289062 Z M 149.855469 36.773438 C 152.167969 36.851562 149.035156 36.882812 137.871094 36.898438 C 131.25 36.910156 125.421875 36.925781 124.921875 36.941406 C 124.25 36.953125 123.78125 37.007812 123.28125 37.132812 C 122.902344 37.222656 121.933594 37.453125 121.203125 37.628906 C 119.941406 37.929688 118.945312 38.054688 118.945312 37.902344 C 118.945312 37.871094 119.882812 37.597656 121.027344 37.289062 L 123.078125 36.730469 L 136.027344 36.734375 C 143.144531 36.742188 149.386719 36.753906 149.855469 36.773438 Z M 110.890625 36.816406 C 111.972656 36.84375 112.003906 36.855469 111.445312 36.90625 C 110.859375 36.953125 100.3125 36.996094 100.019531 36.945312 C 99.960938 36.9375 99.960938 36.890625 100.078125 36.851562 C 100.226562 36.785156 100.871094 36.777344 105 36.78125 C 107.578125 36.78125 110.246094 36.796875 110.890625 36.816406 Z M 72.394531 37.90625 C 70.636719 38.042969 70.167969 38.195312 70.167969 38.601562 C 70.167969 38.890625 70.285156 38.984375 70.78125 39.082031 C 72.246094 39.386719 74.445312 39.488281 76.171875 39.324219 C 77.402344 39.207031 77.550781 39.238281 76.496094 39.394531 C 75.617188 39.523438 73.859375 39.589844 72.539062 39.539062 C 70.664062 39.464844 68.878906 39.066406 68.847656 38.714844 C 68.847656 38.335938 70.078125 37.980469 71.777344 37.875 C 73.007812 37.800781 73.449219 37.824219 72.394531 37.90625 Z M 229.042969 37.972656 C 228.984375 38 228.75 38.035156 228.574219 38.042969 C 228.371094 38.054688 228.28125 38.035156 228.398438 37.988281 C 228.605469 37.90625 229.21875 37.890625 229.042969 37.972656 Z M 229.394531 38.523438 C 229.394531 38.683594 229.277344 38.738281 229.042969 38.726562 C 228.632812 38.703125 228.371094 38.363281 228.664062 38.246094 C 228.984375 38.117188 229.394531 38.277344 229.394531 38.523438 Z M 146.25 38.5625 C 146.164062 38.820312 146.25 38.875 146.953125 39.042969 C 148.390625 39.378906 150.675781 39.46875 152.316406 39.257812 C 153.457031 39.105469 153.488281 39.175781 152.375 39.367188 C 151.640625 39.488281 151.289062 39.511719 150.148438 39.511719 C 147.746094 39.511719 146.457031 39.339844 145.753906 38.914062 C 145.488281 38.757812 145.460938 38.636719 145.664062 38.492188 C 146.074219 38.191406 146.398438 38.230469 146.25 38.5625 Z M 127.792969 38.609375 C 127.675781 38.957031 128.261719 39.160156 129.785156 39.320312 C 131.164062 39.464844 133.066406 39.441406 134.648438 39.261719 L 135.792969 39.128906 L 134.765625 39.296875 C 131.484375 39.847656 126.386719 39.433594 126.945312 38.660156 C 127.0625 38.503906 127.53125 38.328125 127.851562 38.328125 C 127.882812 38.328125 127.851562 38.453125 127.792969 38.609375 Z M 101.132812 38.859375 C 101.425781 38.902344 101.660156 38.960938 101.660156 38.996094 C 101.660156 39.042969 102.539062 39.054688 105.910156 39.054688 L 110.15625 39.054688 L 110.507812 39.179688 C 111.09375 39.386719 112.792969 39.796875 113.703125 39.945312 L 114.523438 40.082031 L 97.5 40.066406 L 80.507812 40.058594 L 81.5625 39.945312 C 82.179688 39.878906 82.96875 39.777344 83.378906 39.703125 C 84.316406 39.546875 85.546875 39.132812 85.546875 38.988281 C 85.546875 38.894531 85.695312 38.875 86.25 38.875 C 86.808594 38.875 86.984375 38.902344 87.070312 38.996094 L 87.160156 39.121094 L 92.578125 39.105469 C 95.566406 39.101562 98.085938 39.082031 98.203125 39.074219 C 98.292969 39.066406 98.46875 38.992188 98.585938 38.917969 C 98.761719 38.804688 98.90625 38.78125 99.699219 38.78125 C 100.195312 38.78125 100.839844 38.8125 101.132812 38.859375 Z M 229.511719 39.105469 C 229.777344 39.3125 229.71875 39.464844 229.425781 39.464844 C 229.042969 39.464844 228.808594 39.34375 228.808594 39.140625 C 228.808594 38.929688 229.25 38.90625 229.511719 39.105469 Z M 140.363281 39.792969 C 140.65625 39.851562 140.890625 39.914062 140.917969 39.929688 C 140.917969 39.953125 140.214844 39.96875 139.335938 39.96875 L 137.753906 39.96875 L 138.546875 39.832031 C 139.484375 39.667969 139.660156 39.667969 140.363281 39.792969 Z M 140.363281 39.792969 "/>
<path style=" stroke:none;fill-rule:nonzero;fill:rgb(0%,0%,0%);fill-opacity:1;" d="M 196.582031 11.796875 C 196.582031 11.824219 196.730469 11.859375 196.933594 11.875 C 197.109375 11.894531 197.167969 11.890625 197.050781 11.859375 C 196.964844 11.835938 197.050781 11.796875 197.226562 11.789062 C 197.460938 11.777344 197.402344 11.761719 197.109375 11.761719 C 196.816406 11.757812 196.582031 11.777344 196.582031 11.796875 Z M 196.582031 11.796875 "/>
<path style=" stroke:none;fill-rule:nonzero;fill:rgb(0%,0%,0%);fill-opacity:1;" d="M 196.757812 18.378906 C 196.289062 18.433594 196.289062 18.441406 196.671875 18.441406 C 196.933594 18.441406 197.199219 18.414062 197.285156 18.378906 C 197.375 18.347656 197.402344 18.320312 197.375 18.320312 C 197.316406 18.320312 197.050781 18.347656 196.757812 18.378906 Z M 196.757812 18.378906 "/>
<path style=" stroke:none;fill-rule:nonzero;fill:rgb(0%,0%,0%);fill-opacity:1;" d="M 196.582031 22.285156 C 196.582031 22.308594 196.730469 22.332031 196.90625 22.332031 C 197.050781 22.332031 197.109375 22.308594 197.023438 22.285156 C 196.933594 22.257812 196.789062 22.238281 196.699219 22.238281 C 196.640625 22.238281 196.582031 22.257812 196.582031 22.285156 Z M 196.582031 22.285156 "/>
<path style=" stroke:none;fill-rule:nonzero;fill:rgb(0%,0%,0%);fill-opacity:1;" d="M 103.15625 43.414062 C 99.550781 43.5625 97.382812 43.855469 96.035156 44.378906 C 95.363281 44.632812 95.363281 44.660156 95.363281 46.667969 C 95.363281 48.671875 95.363281 48.699219 96.035156 48.949219 C 96.796875 49.246094 98.964844 49.621094 100.664062 49.757812 C 103.449219 49.976562 108.164062 49.996094 111.535156 49.804688 C 112.765625 49.734375 113.671875 49.636719 114.875 49.449219 C 117.042969 49.109375 117.511719 48.894531 117.6875 48.179688 L 117.832031 47.625 L 110.15625 47.625 L 110.1875 48.050781 C 110.1875 48.539062 109.804688 48.71875 108.398438 48.832031 C 106.582031 48.976562 104.269531 48.871094 103.535156 48.601562 C 102.921875 48.367188 102.921875 44.851562 103.566406 44.660156 C 104.210938 44.464844 105.117188 44.386719 106.789062 44.386719 C 107.988281 44.386719 108.429688 44.410156 108.898438 44.488281 C 110.011719 44.679688 110.273438 44.816406 110.390625 45.308594 L 110.539062 45.800781 L 117.773438 45.800781 L 117.773438 45.316406 C 117.773438 44.195312 115.519531 43.617188 110.304688 43.40625 C 108.164062 43.320312 105.234375 43.324219 103.15625 43.414062 Z M 103.15625 43.414062 "/>
<path style=" stroke:none;fill-rule:nonzero;fill:rgb(0%,0%,0%);fill-opacity:1;" d="M 233.9375 43.402344 C 229.953125 43.558594 227.375 43.976562 226.464844 44.617188 C 226.230469 44.792969 226.144531 45.425781 226.230469 46.824219 L 226.320312 48.785156 L 227.109375 49.035156 C 229.074219 49.652344 232.382812 49.949219 237.394531 49.949219 C 241.613281 49.949219 245.128906 49.707031 246.886719 49.296875 C 248.203125 48.984375 248.46875 48.820312 248.644531 48.179688 L 248.789062 47.625 L 241.113281 47.625 L 241.113281 48.011719 C 241.113281 48.464844 240.585938 48.710938 239.386719 48.820312 C 237.65625 48.980469 235.078125 48.871094 234.257812 48.601562 C 233.847656 48.476562 233.789062 48.199219 233.789062 46.644531 C 233.789062 44.699219 233.847656 44.621094 235.371094 44.457031 C 236.074219 44.378906 238.535156 44.363281 239.414062 44.4375 C 240.527344 44.535156 241.113281 44.824219 241.113281 45.332031 L 241.113281 45.800781 L 248.730469 45.800781 L 248.730469 45.28125 C 248.730469 44.445312 247.414062 43.960938 244.277344 43.632812 C 241.789062 43.371094 237.335938 43.269531 233.9375 43.402344 Z M 233.9375 43.402344 "/>
<path style=" stroke:none;fill-rule:nonzero;fill:rgb(0%,0%,0%);fill-opacity:1;" d="M 18.839844 43.621094 C 18.925781 43.703125 19.953125 44.429688 21.09375 45.230469 C 22.238281 46.03125 23.410156 46.886719 23.730469 47.121094 C 24.054688 47.359375 24.875 47.957031 25.605469 48.445312 C 26.308594 48.929688 27.042969 49.449219 27.246094 49.59375 L 27.570312 49.855469 L 36.476562 49.855469 L 37.003906 49.457031 C 37.296875 49.238281 37.96875 48.730469 38.527344 48.328125 C 39.082031 47.929688 40.460938 46.902344 41.601562 46.050781 C 44.003906 44.265625 44.824219 43.667969 45 43.554688 C 45.148438 43.480469 44.824219 43.476562 41.222656 43.476562 L 37.324219 43.476562 L 36.359375 44.398438 C 33.515625 47.175781 32.519531 48.132812 32.316406 48.261719 C 32.167969 48.347656 32.023438 48.289062 31.730469 48.035156 C 31.289062 47.632812 29.503906 45.933594 28.828125 45.277344 C 28.390625 44.851562 27.453125 43.964844 27.042969 43.621094 L 26.867188 43.476562 L 18.664062 43.476562 Z M 18.839844 43.621094 "/>
<path style=" stroke:none;fill-rule:nonzero;fill:rgb(0%,0%,0%);fill-opacity:1;" d="M 51.445312 43.804688 C 51.183594 43.988281 50.566406 44.441406 50.070312 44.820312 C 49.601562 45.195312 48.605469 45.921875 47.902344 46.4375 C 46.085938 47.742188 43.359375 49.769531 43.359375 49.816406 C 43.359375 49.839844 45 49.855469 46.992188 49.855469 L 50.625 49.855469 L 51.09375 49.523438 C 51.328125 49.347656 51.679688 49.066406 51.886719 48.910156 L 52.238281 48.625 L 61.085938 48.625 L 61.847656 49.226562 L 62.609375 49.832031 L 66.445312 49.847656 C 69.140625 49.855469 70.3125 49.84375 70.3125 49.804688 C 70.3125 49.757812 66.269531 46.847656 64.777344 45.824219 C 64.277344 45.496094 63.839844 45.167969 63.75 45.09375 C 63.515625 44.878906 62.109375 43.835938 61.789062 43.644531 L 61.496094 43.476562 L 51.914062 43.476562 Z M 57.128906 45.121094 C 57.128906 45.21875 59.679688 47.378906 59.914062 47.472656 C 60 47.519531 59.269531 47.53125 56.808594 47.53125 L 53.554688 47.53125 L 53.703125 47.40625 C 53.789062 47.335938 54.492188 46.765625 55.253906 46.132812 C 56.046875 45.503906 56.777344 45 56.894531 45.007812 C 57.011719 45.019531 57.128906 45.070312 57.128906 45.121094 Z M 57.128906 45.121094 "/>
<path style=" stroke:none;fill-rule:nonzero;fill:rgb(0%,0%,0%);fill-opacity:1;" d="M 73.828125 46.667969 L 73.828125 49.855469 L 92.578125 49.855469 L 92.578125 48.855469 L 81.152344 48.855469 L 81.152344 43.476562 L 73.828125 43.476562 Z M 73.828125 46.667969 "/>
<path style=" stroke:none;fill-rule:nonzero;fill:rgb(0%,0%,0%);fill-opacity:1;" d="M 121.933594 46.152344 L 122.023438 48.832031 L 122.84375 49.089844 C 123.839844 49.410156 125.773438 49.683594 128 49.820312 C 129.375 49.902344 130.226562 49.921875 133.300781 49.921875 C 136.699219 49.925781 137.082031 49.914062 138.664062 49.800781 C 142.472656 49.523438 144.171875 49.148438 144.726562 48.464844 C 144.902344 48.261719 145.019531 47.097656 145.019531 45.785156 L 144.992188 43.476562 L 137.402344 43.476562 L 137.402344 45.9375 C 137.402344 48.070312 137.34375 48.421875 136.933594 48.574219 C 136.171875 48.871094 133.710938 48.984375 131.367188 48.832031 C 129.464844 48.707031 129.492188 48.734375 129.492188 45.960938 L 129.492188 43.476562 L 121.847656 43.476562 Z M 121.933594 46.152344 "/>
<path style=" stroke:none;fill-rule:nonzero;fill:rgb(0%,0%,0%);fill-opacity:1;" d="M 150 46.667969 L 150 49.855469 L 157.617188 49.855469 L 157.617188 47.40625 L 161.367188 47.386719 C 164.355469 47.367188 165.441406 47.34375 166.816406 47.261719 C 171.152344 47 173.203125 46.273438 172.734375 45.183594 C 172.441406 44.5 171.5625 44.171875 169.132812 43.839844 C 166.816406 43.523438 165.234375 43.476562 157.003906 43.476562 L 150 43.476562 Z M 163.15625 44.582031 C 164.882812 44.71875 165.734375 45.175781 165.234375 45.714844 C 164.824219 46.179688 163.359375 46.347656 159.816406 46.347656 L 157.617188 46.347656 L 157.617188 45.71875 C 157.617188 45.375 157.558594 44.964844 157.5 44.808594 L 157.382812 44.523438 L 159.933594 44.523438 C 161.339844 44.523438 162.773438 44.550781 163.15625 44.582031 Z M 163.15625 44.582031 "/>
<path style=" stroke:none;fill-rule:nonzero;fill:rgb(0%,0%,0%);fill-opacity:1;" d="M 175.195312 44 L 175.195312 44.523438 L 183.398438 44.523438 L 183.398438 49.855469 L 191.015625 49.855469 L 191.015625 44.523438 L 198.925781 44.523438 L 198.925781 43.476562 L 175.195312 43.476562 Z M 175.195312 44 "/>
<path style=" stroke:none;fill-rule:nonzero;fill:rgb(0%,0%,0%);fill-opacity:1;" d="M 202.414062 43.871094 C 202.414062 44.097656 202.355469 45.53125 202.265625 47.0625 L 202.121094 49.855469 L 221.777344 49.855469 L 221.777344 48.855469 L 210.058594 48.855469 L 210.058594 47.121094 L 220.019531 47.121094 L 220.019531 46.074219 L 210.058594 46.074219 L 210.058594 44.523438 L 221.191406 44.523438 L 221.191406 43.476562 L 202.441406 43.476562 Z M 202.414062 43.871094 "/>
<path style=" stroke:none;fill-rule:nonzero;fill:rgb(0%,0%,0%);fill-opacity:1;" d="M 253.417969 46.667969 L 253.417969 49.855469 L 261.035156 49.855469 L 261.035156 47.03125 L 268.945312 47.03125 L 268.945312 49.855469 L 276.5625 49.855469 L 276.5625 43.476562 L 268.945312 43.476562 L 268.945312 45.984375 L 261.035156 45.984375 L 261.035156 43.476562 L 253.417969 43.476562 Z M 253.417969 46.667969 "/>
<path style=" stroke:none;fill-rule:nonzero;fill:rgb(0%,0%,0%);fill-opacity:1;" d="M 105.03125 51.574219 C 104.09375 51.792969 104.121094 51.808594 105.175781 51.796875 C 106.054688 51.792969 107.8125 51.574219 107.8125 51.464844 C 107.8125 51.429688 107.433594 51.40625 106.789062 51.40625 C 105.96875 51.40625 105.644531 51.433594 105.03125 51.574219 Z M 105.03125 51.574219 "/>
<path style=" stroke:none;fill-rule:nonzero;fill:rgb(0%,0%,0%);fill-opacity:1;" d="M 261.300781 51.453125 C 260.773438 51.496094 259.980469 51.757812 260.214844 51.796875 C 260.566406 51.847656 261.886719 51.757812 262.675781 51.628906 C 263.117188 51.554688 263.4375 51.488281 263.351562 51.480469 C 263.027344 51.429688 261.710938 51.410156 261.300781 51.453125 Z M 261.300781 51.453125 "/>
<path style=" stroke:none;fill-rule:nonzero;fill:rgb(0%,0%,0%);fill-opacity:1;" d="M 56.25 52.003906 C 53.820312 52.152344 52.734375 52.714844 53.644531 53.359375 C 54.40625 53.917969 58.976562 54.097656 61.113281 53.65625 C 61.757812 53.523438 61.964844 53.429688 62.109375 53.148438 C 62.316406 52.722656 62.023438 52.382812 61.289062 52.226562 C 60.207031 51.992188 57.980469 51.898438 56.25 52.003906 Z M 59.179688 52.417969 C 59.621094 52.53125 59.765625 52.648438 59.765625 52.917969 C 59.765625 53.109375 59.648438 53.320312 59.472656 53.382812 C 58.917969 53.621094 56.953125 53.652344 56.308594 53.433594 C 56.105469 53.371094 55.957031 53.132812 55.957031 52.914062 C 55.957031 52.578125 56.046875 52.492188 56.574219 52.390625 C 57.421875 52.222656 58.449219 52.234375 59.179688 52.417969 Z M 59.179688 52.417969 "/>
<path style=" stroke:none;fill-rule:nonzero;fill:rgb(0%,0%,0%);fill-opacity:1;" d="M 87.011719 52.035156 C 85.34375 52.171875 84.667969 52.4375 84.667969 52.9375 C 84.667969 53.277344 84.785156 53.382812 85.34375 53.550781 C 86.222656 53.8125 87.539062 53.925781 89.445312 53.898438 C 91.230469 53.875 92.316406 53.753906 92.871094 53.507812 C 93.371094 53.289062 93.105469 53.230469 91.671875 53.230469 C 91.054688 53.230469 90.851562 53.257812 90.734375 53.359375 C 90.382812 53.621094 88.242188 53.65625 87.628906 53.421875 C 87.246094 53.277344 87.128906 52.613281 87.453125 52.457031 C 87.6875 52.339844 88.710938 52.265625 89.621094 52.304688 C 89.941406 52.316406 90.382812 52.390625 90.558594 52.472656 C 90.851562 52.601562 90.996094 52.613281 91.875 52.601562 C 92.695312 52.582031 92.871094 52.5625 92.871094 52.46875 C 92.871094 52.0625 89.648438 51.820312 87.011719 52.035156 Z M 87.011719 52.035156 "/>
<path style=" stroke:none;fill-rule:nonzero;fill:rgb(0%,0%,0%);fill-opacity:1;" d="M 103.710938 51.980469 C 102.480469 52.046875 101.953125 52.117188 101.339844 52.289062 C 100.722656 52.453125 100.636719 52.535156 100.636719 52.933594 C 100.636719 53.304688 100.753906 53.414062 101.222656 53.542969 C 102.160156 53.789062 103.183594 53.886719 105 53.886719 C 108.046875 53.890625 109.367188 53.605469 109.394531 52.9375 C 109.425781 52.476562 108.898438 52.234375 107.492188 52.074219 C 106.699219 51.988281 104.53125 51.933594 103.710938 51.980469 Z M 106.347656 52.417969 C 106.816406 52.535156 106.933594 52.648438 106.933594 52.933594 C 106.933594 53.433594 106.144531 53.644531 104.53125 53.578125 C 103.417969 53.535156 103.039062 53.34375 103.15625 52.875 C 103.242188 52.550781 103.390625 52.445312 103.828125 52.367188 C 104.679688 52.226562 105.675781 52.246094 106.347656 52.417969 Z M 106.347656 52.417969 "/>
<path style=" stroke:none;fill-rule:nonzero;fill:rgb(0%,0%,0%);fill-opacity:1;" d="M 150 52.035156 C 148.359375 52.164062 147.65625 52.429688 147.65625 52.933594 C 147.6875 53.558594 148.710938 53.832031 151.261719 53.898438 C 153.429688 53.953125 155.683594 53.707031 155.917969 53.386719 C 156.007812 53.257812 155.976562 53.25 154.835938 53.25 C 153.839844 53.25 153.664062 53.265625 153.574219 53.355469 C 153.371094 53.585938 151.261719 53.652344 150.558594 53.449219 C 150.148438 53.328125 150.148438 52.535156 150.558594 52.414062 C 151.085938 52.261719 152.34375 52.234375 152.988281 52.363281 C 153.28125 52.417969 153.515625 52.503906 153.515625 52.554688 C 153.515625 52.628906 153.664062 52.640625 154.191406 52.617188 C 154.542969 52.605469 155.070312 52.589844 155.363281 52.589844 C 156.5625 52.589844 155.363281 52.136719 153.808594 52.011719 C 152.785156 51.929688 151.203125 51.9375 150 52.035156 Z M 150 52.035156 "/>
<path style=" stroke:none;fill-rule:nonzero;fill:rgb(0%,0%,0%);fill-opacity:1;" d="M 204.054688 52.015625 C 203.585938 52.046875 202.941406 52.117188 202.675781 52.167969 C 201.242188 52.417969 200.773438 53.167969 201.828125 53.535156 C 202.824219 53.867188 204.933594 53.988281 206.925781 53.824219 C 207.863281 53.753906 208.066406 53.75 208.214844 53.804688 C 208.300781 53.839844 208.683594 53.867188 209.0625 53.867188 C 209.765625 53.867188 209.765625 53.863281 209.765625 53.367188 L 209.765625 52.863281 L 205.957031 52.863281 L 205.957031 53.046875 C 205.957031 53.210938 206.046875 53.230469 206.691406 53.230469 C 207.539062 53.230469 207.65625 53.339844 206.953125 53.492188 C 206.339844 53.632812 204.933594 53.628906 204.347656 53.484375 C 203.613281 53.3125 203.4375 52.769531 204.023438 52.527344 C 204.757812 52.226562 206.425781 52.191406 207.128906 52.457031 C 207.511719 52.601562 207.832031 52.613281 209.003906 52.550781 C 209.5625 52.511719 209.679688 52.480469 209.5625 52.398438 C 208.945312 52.03125 206.398438 51.855469 204.054688 52.015625 Z M 204.054688 52.015625 "/>
<path style=" stroke:none;fill-rule:nonzero;fill:rgb(0%,0%,0%);fill-opacity:1;" d="M 25.78125 52.933594 L 25.78125 53.867188 L 28.125 53.867188 L 28.125 52 L 25.78125 52 Z M 25.78125 52.933594 "/>
<path style=" stroke:none;fill-rule:nonzero;fill:rgb(0%,0%,0%);fill-opacity:1;" d="M 31.054688 52.933594 L 31.054688 53.867188 L 33.429688 53.867188 L 33.3125 53.265625 L 33.195312 52.660156 L 35.128906 53.265625 L 37.0625 53.867188 L 39.257812 53.867188 L 39.257812 52 L 36.886719 52 L 36.972656 52.546875 C 37.03125 52.847656 37.003906 53.09375 36.914062 53.085938 C 36.828125 53.085938 36.007812 52.839844 35.097656 52.539062 L 33.429688 52 L 31.054688 52 Z M 31.054688 52.933594 "/>
<path style=" stroke:none;fill-rule:nonzero;fill:rgb(0%,0%,0%);fill-opacity:1;" d="M 42.1875 52.929688 L 42.1875 53.867188 L 44.503906 53.867188 L 44.589844 53.289062 L 44.679688 52.710938 L 46.523438 53.289062 L 48.371094 53.867188 L 50.683594 53.867188 L 50.683594 52 L 48.339844 52 L 48.339844 52.554688 L 48.3125 53.113281 L 44.679688 52.019531 L 43.449219 52.007812 L 42.1875 51.992188 Z M 42.1875 52.929688 "/>
<path style=" stroke:none;fill-rule:nonzero;fill:rgb(0%,0%,0%);fill-opacity:1;" d="M 63.867188 52.03125 C 63.867188 52.0625 65.421875 52.972656 66.476562 53.570312 L 66.972656 53.84375 L 68.554688 53.84375 C 70.078125 53.84375 70.167969 53.839844 70.371094 53.707031 C 70.519531 53.628906 71.25 53.214844 72.042969 52.78125 L 73.449219 52 L 72.1875 52 C 70.753906 52 70.988281 51.917969 69.550781 52.828125 C 69.082031 53.125 68.613281 53.367188 68.496094 53.367188 C 68.351562 53.367188 68.261719 53.328125 68.261719 53.285156 C 68.261719 53.242188 67.851562 52.933594 67.324219 52.605469 L 66.359375 52 L 65.128906 52 C 64.425781 52 63.867188 52.011719 63.867188 52.03125 Z M 63.867188 52.03125 "/>
<path style=" stroke:none;fill-rule:nonzero;fill:rgb(0%,0%,0%);fill-opacity:1;" d="M 76.40625 52.417969 C 75.996094 52.648438 75.234375 53.054688 74.738281 53.320312 C 74.238281 53.585938 73.828125 53.8125 73.828125 53.832031 C 73.828125 53.851562 74.355469 53.867188 75 53.867188 C 76.144531 53.867188 76.171875 53.863281 76.523438 53.660156 L 76.875 53.457031 L 80.1875 53.457031 L 80.449219 53.648438 C 80.714844 53.84375 80.714844 53.84375 82.148438 53.859375 C 83.410156 53.871094 83.554688 53.863281 83.378906 53.789062 C 83.261719 53.742188 82.414062 53.324219 81.503906 52.851562 L 79.835938 52 L 77.199219 52 Z M 79.074219 52.78125 C 79.25 52.914062 79.484375 53.066406 79.570312 53.121094 C 79.71875 53.203125 79.601562 53.210938 78.546875 53.210938 C 77.871094 53.207031 77.34375 53.195312 77.34375 53.183594 C 77.34375 53.105469 78.398438 52.546875 78.546875 52.546875 C 78.632812 52.546875 78.867188 52.65625 79.074219 52.78125 Z M 79.074219 52.78125 "/>
<path style=" stroke:none;fill-rule:nonzero;fill:rgb(0%,0%,0%);fill-opacity:1;" d="M 95.507812 52.933594 L 95.507812 53.867188 L 98.144531 53.867188 L 98.144531 52 L 95.507812 52 Z M 95.507812 52.933594 "/>
<path style=" stroke:none;fill-rule:nonzero;fill:rgb(0%,0%,0%);fill-opacity:1;" d="M 111.914062 52.929688 L 111.914062 53.867188 L 114.289062 53.867188 L 114.199219 53.273438 C 114.140625 52.945312 114.171875 52.683594 114.257812 52.6875 C 114.347656 52.6875 115.253906 52.957031 116.25 53.277344 L 118.125 53.867188 L 120.410156 53.867188 L 120.410156 52 L 118.097656 52 L 118.007812 52.550781 L 117.921875 53.097656 L 116.132812 52.558594 L 114.316406 52.019531 L 113.117188 52.007812 L 111.914062 51.992188 Z M 111.914062 52.929688 "/>
<path style=" stroke:none;fill-rule:nonzero;fill:rgb(0%,0%,0%);fill-opacity:1;" d="M 128.027344 52.933594 L 128.027344 53.867188 L 130.371094 53.867188 L 130.371094 53.101562 L 132.011719 53.082031 C 132.921875 53.078125 133.710938 53.078125 133.769531 53.085938 C 133.828125 53.097656 133.886719 53.277344 133.886719 53.488281 L 133.886719 53.867188 L 136.230469 53.867188 L 136.230469 52 L 133.917969 52 L 133.828125 52.371094 L 133.742188 52.75 L 130.519531 52.75 L 130.429688 52.371094 L 130.34375 52 L 128.027344 52 Z M 128.027344 52.933594 "/>
<path style=" stroke:none;fill-rule:nonzero;fill:rgb(0%,0%,0%);fill-opacity:1;" d="M 139.160156 52.933594 L 139.160156 53.867188 L 145.929688 53.867188 L 145.839844 53.695312 L 145.753906 53.523438 L 143.644531 53.511719 L 141.503906 53.496094 L 141.503906 53.09375 L 145.019531 53.09375 L 145.019531 52.773438 L 141.503906 52.773438 L 141.503906 52.320312 L 143.644531 52.308594 L 145.753906 52.292969 L 145.839844 52.144531 L 145.929688 52 L 139.160156 52 Z M 139.160156 52.933594 "/>
<path style=" stroke:none;fill-rule:nonzero;fill:rgb(0%,0%,0%);fill-opacity:1;" d="M 158.203125 52.929688 L 158.203125 53.867188 L 160.839844 53.867188 L 160.839844 53.066406 L 162.539062 53.066406 L 164.210938 53.070312 L 164.296875 53.464844 L 164.386719 53.867188 L 166.699219 53.867188 L 166.699219 52 L 164.386719 52 L 164.296875 52.371094 L 164.210938 52.75 L 162.539062 52.753906 L 160.839844 52.765625 L 160.8125 52.617188 C 160.78125 52.539062 160.753906 52.371094 160.722656 52.25 L 160.695312 52.019531 L 159.464844 52.007812 L 158.203125 51.992188 Z M 158.203125 52.929688 "/>
<path style=" stroke:none;fill-rule:nonzero;fill:rgb(0%,0%,0%);fill-opacity:1;" d="M 172.148438 52.039062 C 171.972656 52.082031 169.101562 53.578125 168.839844 53.761719 C 168.691406 53.859375 168.78125 53.867188 169.835938 53.867188 C 170.917969 53.867188 170.976562 53.859375 171.386719 53.671875 L 171.828125 53.480469 L 175.019531 53.480469 L 175.371094 53.660156 C 175.664062 53.835938 175.722656 53.84375 177.011719 53.859375 L 178.359375 53.871094 L 176.953125 53.128906 C 176.191406 52.71875 175.402344 52.300781 175.195312 52.191406 C 174.816406 52.003906 174.785156 52 173.554688 52 C 172.851562 52 172.238281 52.015625 172.148438 52.039062 Z M 174.140625 52.875 C 174.785156 53.21875 174.785156 53.21875 173.4375 53.214844 C 172.792969 53.210938 172.265625 53.1875 172.265625 53.167969 C 172.265625 53.050781 173.261719 52.546875 173.4375 52.578125 C 173.554688 52.59375 173.878906 52.726562 174.140625 52.875 Z M 174.140625 52.875 "/>
<path style=" stroke:none;fill-rule:nonzero;fill:rgb(0%,0%,0%);fill-opacity:1;" d="M 184.570312 52.933594 L 184.570312 53.867188 L 187.207031 53.867188 L 187.207031 52 L 184.570312 52 Z M 184.570312 52.933594 "/>
<path style=" stroke:none;fill-rule:nonzero;fill:rgb(0%,0%,0%);fill-opacity:1;" d="M 190.136719 52.933594 L 190.136719 53.867188 L 192.480469 53.867188 L 192.480469 52.660156 L 194.386719 53.261719 L 196.289062 53.867188 L 198.632812 53.867188 L 198.632812 52 L 196.289062 52 L 196.289062 53.113281 L 194.53125 52.554688 L 192.804688 52 L 190.136719 52 Z M 190.136719 52.933594 "/>
<path style=" stroke:none;fill-rule:nonzero;fill:rgb(0%,0%,0%);fill-opacity:1;" d="M 212.695312 52.933594 L 212.695312 53.871094 L 216.152344 53.859375 C 219.550781 53.84375 219.582031 53.84375 219.667969 53.734375 C 219.816406 53.570312 219.023438 53.503906 217.03125 53.503906 L 215.332031 53.503906 L 215.332031 53.09375 L 218.847656 53.09375 L 218.847656 52.773438 L 215.332031 52.773438 L 215.332031 52.316406 L 217.355469 52.316406 C 219.464844 52.316406 219.726562 52.289062 219.726562 52.085938 C 219.726562 52.003906 219.492188 52 216.210938 52 L 212.695312 52 Z M 212.695312 52.933594 "/>
<path style=" stroke:none;fill-rule:nonzero;fill:rgb(0%,0%,0%);fill-opacity:1;" d="M 222.070312 52.933594 L 222.070312 53.867188 L 224.414062 53.867188 L 224.414062 52.667969 L 226.378906 53.269531 L 228.371094 53.867188 L 230.566406 53.867188 L 230.566406 52 L 228.222656 52 L 228.195312 52.554688 L 228.195312 53.113281 L 226.378906 52.554688 L 224.5625 52 L 222.070312 52 Z M 222.070312 52.933594 "/>
<path style=" stroke:none;fill-rule:nonzero;fill:rgb(0%,0%,0%);fill-opacity:1;" d="M 233.789062 52.933594 L 233.789062 53.867188 L 236.132812 53.867188 L 236.132812 52 L 233.789062 52 Z M 233.789062 52.933594 "/>
<path style=" stroke:none;fill-rule:nonzero;fill:rgb(0%,0%,0%);fill-opacity:1;" d="M 239.355469 52.933594 L 239.355469 53.867188 L 245.742188 53.867188 L 245.859375 53.707031 C 245.917969 53.617188 245.917969 53.535156 245.832031 53.523438 C 245.773438 53.511719 244.804688 53.503906 243.691406 53.503906 L 241.699219 53.503906 L 241.699219 53.09375 L 245.214844 53.09375 L 245.214844 52.773438 L 241.699219 52.773438 L 241.699219 52.316406 L 245.800781 52.316406 L 245.800781 52 L 239.355469 52 Z M 239.355469 52.933594 "/>
<path style=" stroke:none;fill-rule:nonzero;fill:rgb(0%,0%,0%);fill-opacity:1;" d="M 248.730469 52.933594 L 248.730469 53.867188 L 251.074219 53.867188 L 251.074219 53.503906 C 251.074219 53.175781 251.132812 53.136719 251.632812 53.136719 C 252.042969 53.136719 252.421875 53.230469 253.125 53.503906 L 254.0625 53.867188 L 256.933594 53.867188 L 255.703125 53.484375 L 254.503906 53.105469 L 255.46875 52.96875 C 256.730469 52.796875 256.992188 52.46875 256.085938 52.234375 C 255.265625 52.039062 254.472656 52 251.339844 52 L 248.730469 52 Z M 253.652344 52.371094 C 254.152344 52.449219 254.09375 52.683594 253.507812 52.78125 C 253.242188 52.828125 252.628906 52.863281 252.042969 52.863281 L 251.074219 52.863281 L 251.074219 52.316406 L 252.1875 52.316406 C 252.804688 52.316406 253.449219 52.339844 253.652344 52.371094 Z M 253.652344 52.371094 "/>
<path style=" stroke:none;fill-rule:nonzero;fill:rgb(0%,0%,0%);fill-opacity:1;" d="M 259.277344 52.933594 L 259.277344 53.867188 L 261.914062 53.867188 L 261.914062 52 L 259.277344 52 Z M 259.277344 52.933594 "/>
<path style=" stroke:none;fill-rule:nonzero;fill:rgb(0%,0%,0%);fill-opacity:1;" d="M 267.363281 52.074219 C 267.277344 52.121094 266.542969 52.511719 265.722656 52.945312 C 264.902344 53.382812 264.140625 53.765625 264.054688 53.804688 C 263.9375 53.851562 264.199219 53.867188 265.226562 53.867188 C 266.515625 53.867188 266.515625 53.867188 266.777344 53.671875 L 267.042969 53.480469 L 270.527344 53.480469 L 270.792969 53.671875 L 271.027344 53.867188 L 272.375 53.867188 C 273.488281 53.867188 273.691406 53.851562 273.574219 53.785156 C 273.488281 53.742188 272.726562 53.324219 271.847656 52.855469 L 270.265625 52 L 268.886719 52 C 267.832031 52 267.480469 52.015625 267.363281 52.074219 Z M 269.621094 52.875 C 270.058594 53.183594 270.058594 53.183594 269.445312 53.1875 C 269.09375 53.1875 268.566406 53.195312 268.300781 53.207031 C 268.007812 53.214844 267.773438 53.195312 267.773438 53.167969 C 267.773438 53.046875 268.800781 52.503906 268.976562 52.535156 C 269.09375 52.554688 269.386719 52.703125 269.621094 52.875 Z M 269.621094 52.875 "/>
</g>
</svg>
